<svg width="1024" height="1024" viewBox="0 0 1024 1024" fill="none" xmlns="http://www.w3.org/2000/svg">
<g clip-path="url(#clip0_6_23)">
<path fill-rule="evenodd" clip-rule="evenodd" d="M178.139 1003.1C155.146 1010.78 149.864 1015.07 157.364 1019.95C166.343 1025.8 252.631 1031.22 292.875 1009.81C359.853 974.185 381.83 934.011 435.975 835.038C438.106 831.143 440.286 827.157 442.521 823.076C481.519 751.884 493.064 694.566 510.876 606.138C512.633 597.413 514.452 588.386 516.363 579.012C538.534 470.307 555.688 414.693 585.241 350.839C620.918 273.754 662.363 218.543 723.568 166.569L753.679 140.999L736.409 160.922C698.246 204.948 650.383 276.977 624.91 328.72C612.352 354.228 609.958 363.688 615.212 367.034C620.571 370.446 696.664 362.332 719.631 355.899C773.379 340.844 825.696 307.607 854.827 270.008C898.027 214.252 927.592 109.153 923.648 25.363L922.491 0.784323L880.288 -0.400601C748.617 -4.09704 638.606 38.9312 582.388 116.115C562.916 142.85 540.616 191.57 533.74 222.399C530.775 235.694 526.605 264.308 524.472 285.986C522.339 307.664 520.193 325.717 519.702 326.103C519.212 326.49 514.269 327.928 508.718 329.3L498.626 331.795L498.601 294.855C498.57 250.613 489.257 206.748 471.636 167.852C422.851 60.162 323.818 5.71935 166.508 0.109441C128.271 -1.25413 110.762 -2.80211 103.512 5.083C96.732 12.4564 98.9232 28.0782 101.526 59.8122C110.035 163.556 137.109 235.554 186.684 286.275C219.122 319.462 244.808 336.029 286.653 350.752C331.176 366.417 406.585 375.353 412.403 365.653C419.519 353.79 327.059 203.994 291.532 169.297C276.737 154.846 222.947 100.157 297.704 165.049C342.461 203.901 397.195 264.841 426.044 322.521C449.919 370.257 455.878 393.97 455.418 439.419C454.069 572.888 400.002 753.614 328.152 864.829C286.79 928.852 222.217 988.37 178.139 1003.1Z" fill="#66AE45"/>
<path d="M516.363 579.012C514.452 588.386 512.633 597.413 510.876 606.138L498.626 331.795L508.718 329.3C514.269 327.928 519.212 326.49 519.702 326.103C520.193 325.717 522.339 307.664 524.472 285.986C526.605 264.308 530.775 235.694 533.74 222.399C540.616 191.57 562.916 142.85 582.388 116.115C638.606 38.9313 748.617 -4.09703 880.288 -0.400591L922.491 0.784334L923.648 25.363C927.592 109.153 898.027 214.252 854.827 270.008C825.696 307.607 773.379 340.844 719.631 355.899C696.664 362.332 620.571 370.446 615.212 367.034C609.958 363.688 612.352 354.228 624.91 328.72C650.383 276.977 698.246 204.948 736.409 160.922L753.679 140.999L723.568 166.569C662.363 218.543 620.918 273.754 585.241 350.839C555.688 414.693 538.534 470.307 516.363 579.012Z" fill="#2282BD"/>
</g>
<defs>
<clipPath id="clip0_6_23">
<rect width="1024" height="1024" fill="white"/>
</clipPath>
</defs>
</svg>
